<svg xmlns="http://www.w3.org/2000/svg" viewBox="0 0 1894 1903" xml:space="preserve"><circle fill="#0D6EFD" cx="337.5" cy="1570.5" r="332.5"/><circle fill="#0E6EFD" cx="351.57" cy="1563.42" r="332.5"/><circle fill="#0F6EFD" cx="365.64" cy="1556.34" r="332.5"/><circle fill="#106EFD" cx="379.71" cy="1549.26" r="332.5"/><circle fill="#116EFC" cx="393.78" cy="1542.18" r="332.5"/><circle fill="#126EFC" cx="407.84" cy="1535.1" r="332.5"/><circle fill="#136DFC" cx="421.91" cy="1528.02" r="332.5"/><circle fill="#146DFC" cx="435.98" cy="1520.94" r="332.5"/><circle fill="#156DFC" cx="450.05" cy="1513.86" r="332.5"/><circle fill="#166DFC" cx="464.12" cy="1506.78" r="332.5"/><circle fill="#176DFC" cx="478.19" cy="1499.7" r="332.5"/><circle fill="#186DFB" cx="492.26" cy="1492.61" r="332.5"/><circle fill="#196DFB" cx="506.33" cy="1485.53" r="332.5"/><circle fill="#1A6DFB" cx="520.4" cy="1478.45" r="332.5"/><circle fill="#1B6DFB" cx="534.47" cy="1471.37" r="332.5"/><circle fill="#1C6DFB" cx="548.53" cy="1464.29" r="332.5"/><circle fill="#1D6DFB" cx="562.6" cy="1457.21" r="332.5"/><circle fill="#1E6CFB" cx="576.67" cy="1450.13" r="332.5"/><circle fill="#1F6CFB" cx="590.74" cy="1443.05" r="332.5"/><circle fill="#206CFA" cx="604.81" cy="1435.97" r="332.5"/><circle fill="#216CFA" cx="618.88" cy="1428.89" r="332.5"/><circle fill="#226CFA" cx="632.95" cy="1421.81" r="332.5"/><circle fill="#236CFA" cx="647.02" cy="1414.73" r="332.5"/><circle fill="#246CFA" cx="661.09" cy="1407.65" r="332.5"/><circle fill="#256CFA" cx="675.16" cy="1400.57" r="332.5"/><circle fill="#266CFA" cx="689.22" cy="1393.49" r="332.5"/><circle fill="#276CF9" cx="703.29" cy="1386.41" r="332.5"/><circle fill="#286CF9" cx="717.36" cy="1379.33" r="332.5"/><circle fill="#296BF9" cx="731.43" cy="1372.25" r="332.5"/><circle fill="#2A6BF9" cx="745.5" cy="1365.17" r="332.5"/><circle fill="#2B6BF9" cx="759.57" cy="1358.09" r="332.5"/><circle fill="#2C6BF9" cx="773.64" cy="1351.01" r="332.5"/><circle fill="#2D6BF9" cx="787.71" cy="1343.93" r="332.5"/><circle fill="#2E6BF8" cx="801.78" cy="1336.84" r="332.5"/><circle fill="#2F6BF8" cx="815.84" cy="1329.76" r="332.5"/><circle fill="#306BF8" cx="829.91" cy="1322.68" r="332.5"/><circle fill="#316BF8" cx="843.98" cy="1315.6" r="332.5"/><circle fill="#326BF8" cx="858.05" cy="1308.52" r="332.5"/><circle fill="#336BF8" cx="872.12" cy="1301.44" r="332.5"/><circle fill="#346AF8" cx="886.19" cy="1294.36" r="332.5"/><circle fill="#356AF7" cx="900.26" cy="1287.28" r="332.5"/><circle fill="#366AF7" cx="914.33" cy="1280.2" r="332.5"/><circle fill="#376AF7" cx="928.4" cy="1273.12" r="332.5"/><circle fill="#386AF7" cx="942.47" cy="1266.04" r="332.5"/><circle fill="#386AF7" cx="956.53" cy="1258.96" r="332.5"/><circle fill="#396AF7" cx="970.6" cy="1251.88" r="332.5"/><circle fill="#3A6AF7" cx="984.67" cy="1244.8" r="332.5"/><circle fill="#3B6AF7" cx="998.74" cy="1237.72" r="332.5"/><circle fill="#3C6AF6" cx="1012.81" cy="1230.64" r="332.5"/><circle fill="#3D69F6" cx="1026.88" cy="1223.56" r="332.5"/><circle fill="#3E69F6" cx="1040.95" cy="1216.48" r="332.5"/><circle fill="#3F69F6" cx="1055.02" cy="1209.4" r="332.5"/><circle fill="#4069F6" cx="1069.09" cy="1202.32" r="332.5"/><circle fill="#4169F6" cx="1083.16" cy="1195.24" r="332.5"/><circle fill="#4269F6" cx="1097.22" cy="1188.16" r="332.5"/><circle fill="#4369F5" cx="1111.29" cy="1181.07" r="332.5"/><circle fill="#4469F5" cx="1125.36" cy="1173.99" r="332.5"/><circle fill="#4569F5" cx="1139.43" cy="1166.91" r="332.5"/><circle fill="#4669F5" cx="1153.5" cy="1159.83" r="332.5"/><circle fill="#4769F5" cx="1167.57" cy="1152.75" r="332.5"/><circle fill="#4868F5" cx="1181.64" cy="1145.67" r="332.5"/><circle fill="#4968F5" cx="1195.71" cy="1138.59" r="332.5"/><circle fill="#4A68F4" cx="1209.78" cy="1131.51" r="332.5"/><circle fill="#4B68F4" cx="1223.84" cy="1124.43" r="332.5"/><circle fill="#4C68F4" cx="1237.91" cy="1117.35" r="332.5"/><circle fill="#4D68F4" cx="1251.98" cy="1110.27" r="332.5"/><circle fill="#4E68F4" cx="1266.05" cy="1103.19" r="332.5"/><circle fill="#4F68F4" cx="1280.12" cy="1096.11" r="332.5"/><circle fill="#5068F4" cx="1294.19" cy="1089.03" r="332.5"/><circle fill="#5168F3" cx="1308.26" cy="1081.95" r="332.5"/><circle fill="#5268F3" cx="1322.33" cy="1074.87" r="332.5"/><circle fill="#5367F3" cx="1336.4" cy="1067.79" r="332.5"/><circle fill="#5467F3" cx="1350.47" cy="1060.71" r="332.5"/><circle fill="#5567F3" cx="1364.53" cy="1053.63" r="332.5"/><circle fill="#5667F3" cx="1378.6" cy="1046.55" r="332.5"/><circle fill="#5767F3" cx="1392.67" cy="1039.47" r="332.5"/><circle fill="#5867F3" cx="1406.74" cy="1032.39" r="332.5"/><circle fill="#5967F2" cx="1420.81" cy="1025.3" r="332.5"/><circle fill="#5A67F2" cx="1434.88" cy="1018.22" r="332.5"/><circle fill="#5B67F2" cx="1448.95" cy="1011.14" r="332.5"/><circle fill="#5C67F2" cx="1463.02" cy="1004.06" r="332.5"/><circle fill="#5D67F2" cx="1477.09" cy="996.98" r="332.5"/><circle fill="#5E66F2" cx="1491.16" cy="989.9" r="332.5"/><circle fill="#5F66F2" cx="1505.22" cy="982.82" r="332.5"/><circle fill="#6066F1" cx="1519.29" cy="975.74" r="332.5"/><circle fill="#6166F1" cx="1533.36" cy="968.66" r="332.5"/><circle fill="#6266F1" cx="1547.43" cy="961.58" r="332.5"/><circle fill="#6366F1" cx="1561.5" cy="954.5" r="332.5"/><circle fill="#6266F1" cx="1547.37" cy="947.35" r="332.5"/><circle fill="#6166F1" cx="1533.25" cy="940.2" r="332.5"/><circle fill="#6066F1" cx="1519.12" cy="933.05" r="332.5"/><circle fill="#5F66F2" cx="1504.99" cy="925.9" r="332.5"/><circle fill="#5E66F2" cx="1490.87" cy="918.75" r="332.5"/><circle fill="#5D67F2" cx="1476.74" cy="911.6" r="332.5"/><circle fill="#5C67F2" cx="1462.61" cy="904.45" r="332.5"/><circle fill="#5B67F2" cx="1448.49" cy="897.3" r="332.5"/><circle fill="#5A67F2" cx="1434.36" cy="890.16" r="332.5"/><circle fill="#5967F2" cx="1420.24" cy="883.01" r="332.5"/><circle fill="#5867F3" cx="1406.11" cy="875.86" r="332.5"/><circle fill="#5767F3" cx="1391.98" cy="868.71" r="332.5"/><circle fill="#5667F3" cx="1377.86" cy="861.56" r="332.5"/><circle fill="#5567F3" cx="1363.73" cy="854.41" r="332.5"/><circle fill="#5467F3" cx="1349.6" cy="847.26" r="332.5"/><circle fill="#5367F3" cx="1335.48" cy="840.11" r="332.5"/><circle fill="#5268F3" cx="1321.35" cy="832.96" r="332.5"/><circle fill="#5168F3" cx="1307.22" cy="825.81" r="332.5"/><circle fill="#5068F4" cx="1293.1" cy="818.66" r="332.5"/><circle fill="#4F68F4" cx="1278.97" cy="811.51" r="332.5"/><circle fill="#4E68F4" cx="1264.84" cy="804.36" r="332.5"/><circle fill="#4D68F4" cx="1250.72" cy="797.21" r="332.5"/><circle fill="#4C68F4" cx="1236.59" cy="790.06" r="332.5"/><circle fill="#4B68F4" cx="1222.47" cy="782.91" r="332.5"/><circle fill="#4A68F4" cx="1208.34" cy="775.76" r="332.5"/><circle fill="#4968F5" cx="1194.21" cy="768.61" r="332.5"/><circle fill="#4868F5" cx="1180.09" cy="761.47" r="332.5"/><circle fill="#4769F5" cx="1165.96" cy="754.32" r="332.5"/><circle fill="#4669F5" cx="1151.83" cy="747.17" r="332.5"/><circle fill="#4569F5" cx="1137.71" cy="740.02" r="332.5"/><circle fill="#4469F5" cx="1123.58" cy="732.87" r="332.5"/><circle fill="#4369F5" cx="1109.45" cy="725.72" r="332.5"/><circle fill="#4269F6" cx="1095.33" cy="718.57" r="332.5"/><circle fill="#4169F6" cx="1081.2" cy="711.42" r="332.5"/><circle fill="#4069F6" cx="1067.07" cy="704.27" r="332.5"/><circle fill="#3F69F6" cx="1052.95" cy="697.12" r="332.5"/><circle fill="#3E69F6" cx="1038.82" cy="689.97" r="332.5"/><circle fill="#3D69F6" cx="1024.7" cy="682.82" r="332.5"/><circle fill="#3C6AF6" cx="1010.57" cy="675.67" r="332.5"/><circle fill="#3B6AF7" cx="996.44" cy="668.52" r="332.5"/><circle fill="#3A6AF7" cx="982.32" cy="661.37" r="332.5"/><circle fill="#396AF7" cx="968.19" cy="654.22" r="332.5"/><circle fill="#386AF7" cx="954.06" cy="647.07" r="332.5"/><circle fill="#386AF7" cx="939.94" cy="639.93" r="332.5"/><circle fill="#376AF7" cx="925.81" cy="632.78" r="332.5"/><circle fill="#366AF7" cx="911.68" cy="625.63" r="332.5"/><circle fill="#356AF7" cx="897.56" cy="618.48" r="332.5"/><circle fill="#346AF8" cx="883.43" cy="611.33" r="332.5"/><circle fill="#336BF8" cx="869.3" cy="604.18" r="332.5"/><circle fill="#326BF8" cx="855.18" cy="597.03" r="332.5"/><circle fill="#316BF8" cx="841.05" cy="589.88" r="332.5"/><circle fill="#306BF8" cx="826.93" cy="582.73" r="332.5"/><circle fill="#2F6BF8" cx="812.8" cy="575.58" r="332.5"/><circle fill="#2E6BF8" cx="798.67" cy="568.43" r="332.5"/><circle fill="#2D6BF9" cx="784.55" cy="561.28" r="332.5"/><circle fill="#2C6BF9" cx="770.42" cy="554.13" r="332.5"/><circle fill="#2B6BF9" cx="756.29" cy="546.98" r="332.5"/><circle fill="#2A6BF9" cx="742.17" cy="539.83" r="332.5"/><circle fill="#296BF9" cx="728.04" cy="532.68" r="332.5"/><circle fill="#286CF9" cx="713.91" cy="525.53" r="332.5"/><circle fill="#276CF9" cx="699.79" cy="518.39" r="332.5"/><circle fill="#266CFA" cx="685.66" cy="511.24" r="332.5"/><circle fill="#256CFA" cx="671.53" cy="504.09" r="332.5"/><circle fill="#246CFA" cx="657.41" cy="496.94" r="332.5"/><circle fill="#236CFA" cx="643.28" cy="489.79" r="332.5"/><circle fill="#226CFA" cx="629.16" cy="482.64" r="332.5"/><circle fill="#216CFA" cx="615.03" cy="475.49" r="332.5"/><circle fill="#206CFA" cx="600.9" cy="468.34" r="332.5"/><circle fill="#1F6CFB" cx="586.78" cy="461.19" r="332.5"/><circle fill="#1E6CFB" cx="572.65" cy="454.04" r="332.5"/><circle fill="#1D6DFB" cx="558.52" cy="446.89" r="332.5"/><circle fill="#1C6DFB" cx="544.4" cy="439.74" r="332.5"/><circle fill="#1B6DFB" cx="530.27" cy="432.59" r="332.5"/><circle fill="#1A6DFB" cx="516.14" cy="425.44" r="332.5"/><circle fill="#196DFB" cx="502.02" cy="418.29" r="332.5"/><circle fill="#186DFB" cx="487.89" cy="411.14" r="332.5"/><circle fill="#176DFC" cx="473.76" cy="403.99" r="332.5"/><circle fill="#166DFC" cx="459.64" cy="396.84" r="332.5"/><circle fill="#156DFC" cx="445.51" cy="389.7" r="332.5"/><circle fill="#146DFC" cx="431.39" cy="382.55" r="332.5"/><circle fill="#136DFC" cx="417.26" cy="375.4" r="332.5"/><circle fill="#126EFC" cx="403.13" cy="368.25" r="332.5"/><circle fill="#116EFC" cx="389.01" cy="361.1" r="332.5"/><circle fill="#106EFD" cx="374.88" cy="353.95" r="332.5"/><circle fill="#0F6EFD" cx="360.75" cy="346.8" r="332.5"/><circle fill="#0E6EFD" cx="346.63" cy="339.65" r="332.5"/><circle fill="#0D6EFD" cx="332.5" cy="332.5" r="332.5"/></svg>