<svg xmlns="http://www.w3.org/2000/svg" style="isolation:isolate" viewBox="0 0 36 38" width="48" height="38pt"><defs><clipPath id="a"><path d="M0 0h36v38H0z"/></clipPath></defs><g clip-path="url(#a)"><path d="M1.091 28.182V9.394l9.394 5.219v8.402L18 27.242l7.515-4.227v-8.402l9.394-5.219v18.788L18 37.576 1.091 28.182Z" fill="#192657"/><linearGradient id="b" x1=".139" y1=".222" x2=".889" y2=".222" gradientTransform="matrix(33.818 0 0 32.879 1.091 0)" gradientUnits="userSpaceOnUse"><stop offset="0%" style="stop-color:#64c2db"/><stop offset="30.729%" style="stop-color:#7476ed"/><stop offset="60.417%" style="stop-color:#c994df"/><stop offset="100%" style="stop-color:#e56f8c"/></linearGradient><path d="M5.788 12.003 1.091 9.394 18 0l16.909 9.394-4.697 2.609v13.83L18 32.879 5.788 25.833v-13.83Zm23.915.283-4.188 2.327v-.052L18 10.333l-7.515 4.228v.052l-4.188-2.327v13.258L18 32.296l11.703-6.752V12.286Z" fill-rule="evenodd" fill="url(#b)"/></g></svg>